<?xml version="1.0" encoding="UTF-8" standalone="no" ?>
<!DOCTYPE svg PUBLIC "-//W3C//DTD SVG 1.1//EN" "http://www.w3.org/Graphics/SVG/1.1/DTD/svg11.dtd">
<svg xmlns="http://www.w3.org/2000/svg" xmlns:xlink="http://www.w3.org/1999/xlink" version="1.1" width="143.978" height="40" viewBox="0 0 71.989 20" xml:space="preserve">
<desc>Created with Fabric.js 4.6.0</desc>
<defs>
</defs>
<g transform="matrix(0.06 0 0 0.03 35.92 10.02)" id="ScEII-YRx9hsV8ZQr5uTm"  >
<g style="" vector-effect="non-scaling-stroke"   >
		<g transform="matrix(1 0 0 1 -313.23 -12.86)" id="SS7GiHPzIWujECLXWDmKc"  >
<path style="stroke: none; stroke-width: 1; stroke-dasharray: none; stroke-linecap: butt; stroke-dashoffset: 0; stroke-linejoin: miter; stroke-miterlimit: 4; fill: rgb(31,190,198); fill-rule: nonzero; opacity: 1;" vector-effect="non-scaling-stroke"  transform=" translate(-271.77, -280.64)" d="M 278.71 173.65 C 280.47999999999996 172.26000000000002 282.88 172.56 284.59999999999997 173.87 C 303.73999999999995 186.1 323.84 196.7 343.4 208.21 C 345.58 209.6 348.03999999999996 210.8 349.57 212.97 C 350 215.04 349.84 217.17 349.88 219.27 C 349.94 237.02 349.85 254.77 349.95 272.52 C 343.22999999999996 269.5 337.02 265.51 330.61 261.91999999999996 C 330.11 248.87999999999997 331.25 235.77999999999997 329.88 222.78999999999996 C 313.44 214.04999999999995 297.73 204.03999999999996 281.32 195.26999999999995 C 267.44 203.02999999999994 253.78 211.18999999999994 239.89 218.91999999999996 C 237.57 220.24999999999997 235.13 221.38999999999996 233.01999999999998 223.03999999999996 C 232.18999999999997 224.60999999999996 232.63 226.52999999999997 232.45999999999998 228.24999999999997 C 232.29 260.85999999999996 232.30999999999997 293.47999999999996 232.45 326.08 C 232.69 326.37 233.16 326.94 233.39 327.21999999999997 C 239.30999999999997 331.19 245.61999999999998 334.53999999999996 251.61999999999998 338.38 C 251.80999999999997 345.27 251.64999999999998 352.15999999999997 251.61999999999998 359.05 C 259.78 364.54 268.94 368.61 276.57 374.83 C 270.52 378.84999999999997 264.09999999999997 382.34 257.28 384.88 C 252.49999999999997 382.55 247.78999999999996 380.07 243.24999999999997 377.31 C 236.38999999999996 380.78000000000003 230.03999999999996 385.17 223.10999999999996 388.48 L 222.28999999999996 388.54 C 212.99999999999997 383.97 204.31999999999996 378.26000000000005 195.19999999999996 373.36 C 193.41999999999996 372.8 193.59999999999997 370.81 193.59999999999997 369.33000000000004 C 193.77999999999997 358.80000000000007 193.41999999999996 348.27000000000004 193.72999999999996 337.74000000000007 C 200.25999999999996 334.4200000000001 206.57999999999996 330.70000000000005 212.86999999999995 326.9600000000001 C 213.18999999999994 288.7400000000001 212.80999999999995 250.5200000000001 213.07999999999996 212.3000000000001 C 234.61 198.83 257.26 187.24 278.71 173.65 z M 205.85 340.37 C 205.66 351.4 205.71 362.45 205.82999999999998 373.48 C 208.27999999999997 373.48 210.73 373.47 213.19 373.45000000000005 C 213.35999999999999 366.9200000000001 213.01 360.38000000000005 213.42 353.86000000000007 C 218.78 360.0200000000001 223.29999999999998 366.86000000000007 228.54999999999998 373.11000000000007 C 231.08999999999997 373.86000000000007 233.80999999999997 373.38000000000005 236.42 373.45000000000005 C 236.48999999999998 362.46000000000004 236.57999999999998 351.47 236.36999999999998 340.49000000000007 C 233.73 340.45000000000005 231.09999999999997 340.4600000000001 228.46999999999997 340.4800000000001 C 228.39999999999998 346.9100000000001 228.65999999999997 353.3400000000001 228.28999999999996 359.7600000000001 C 222.68999999999997 353.7800000000001 218.20999999999995 346.8600000000001 212.96999999999997 340.5600000000001 C 210.6 340.48 208.22 340.43 205.85 340.37 z" stroke-linecap="round" />
</g>
		<g transform="matrix(1 0 0 1 -260.75 32.82)" id="gvTaf8MU_GZSPpASj3jYd"  >
<path style="stroke: none; stroke-width: 1; stroke-dasharray: none; stroke-linecap: butt; stroke-dashoffset: 0; stroke-linejoin: miter; stroke-miterlimit: 4; fill: rgb(31,190,198); fill-rule: nonzero; opacity: 1;" vector-effect="non-scaling-stroke"  transform=" translate(-324.25, -326.32)" d="M 252.46 235.42 C 262.05 229.83999999999997 271.57 224.13 281.33 218.85 C 291.41999999999996 223.76 300.77 230.01999999999998 310.66999999999996 235.29 C 310.84999999999997 242.75 310.36999999999995 250.20999999999998 310.94999999999993 257.65999999999997 C 312.49999999999994 258.74999999999994 314.04999999999995 259.84999999999997 315.67999999999995 260.83 C 342.84999999999997 276.74 370.22999999999996 292.28999999999996 397.43999999999994 308.12 C 401.54999999999995 310.6 406.12999999999994 312.51 409.55999999999995 315.97 C 410.13999999999993 328.71000000000004 409.71999999999997 341.53000000000003 409.86999999999995 354.3 C 409.78 367.51 410.03999999999996 380.73 409.75999999999993 393.92 C 406.91999999999996 397.18 402.74999999999994 398.87 399.1599999999999 401.16 C 380.0199999999999 411.85 361.2999999999999 423.27000000000004 342.0799999999999 433.8 C 324.37999999999994 424.46000000000004 307.25999999999993 414.06 289.9699999999999 404 C 294.4799999999999 399.89 300.12999999999994 397.45 305.3299999999999 394.38 C 306.81999999999994 393.69 308.55999999999995 392.07 310.2099999999999 393.35 C 320.93999999999994 399.23 331.19999999999993 405.98 342.1099999999999 411.56 C 357.6699999999999 402.68 373.1999999999999 393.75 388.6799999999999 384.74 C 389.5999999999999 384.1 390.9399999999999 383.47 390.76999999999987 382.11 C 390.97999999999985 363.69 390.96999999999986 345.26 390.6899999999999 326.84000000000003 C 363.40999999999985 310.68 335.7999999999999 295.09000000000003 308.4299999999999 279.11 C 307.20999999999987 278.40000000000003 305.8899999999999 277.51 304.4399999999999 278.19 C 297.32999999999987 280.14 290.32999999999987 282.46999999999997 283.2399999999999 284.48 C 282.0599999999999 284.68 280.7799999999999 285.35 279.6099999999999 284.79 C 274.6799999999999 282.66 270.3499999999999 279.37 265.4899999999999 277.1 C 263.8999999999999 276.1 262.1299999999999 277.09000000000003 260.6299999999999 277.74 C 253.03999999999988 281.44 246.16999999999987 286.41 238.6499999999999 290.24 C 238.6199999999999 282.77 238.5599999999999 275.3 238.68999999999988 267.83 C 242.53999999999988 265.71999999999997 246.44999999999987 263.68 250.0499999999999 261.15999999999997 C 252.0999999999999 259.99999999999994 252.0499999999999 257.36999999999995 252.3899999999999 255.34999999999997 C 252.74 248.71 252.35 242.06 252.46 235.42 z M 272.54 235.43 C 272.61 246.42000000000002 272.59000000000003 257.4 272.55 268.39 C 275.25 268.45 277.94 268.5 280.64 268.52 C 280.71 265.21 280.71999999999997 261.9 280.65 258.59999999999997 C 284.92999999999995 258.58 289.21 258.60999999999996 293.47999999999996 258.46 C 293.53999999999996 255.86999999999998 293.52 253.26999999999998 293.37999999999994 250.67999999999998 C 289.17999999999995 250.73 284.97999999999996 250.73999999999998 280.78999999999996 250.67999999999998 C 280.73999999999995 248.09999999999997 280.72999999999996 245.52999999999997 280.74999999999994 242.95999999999998 C 285.12999999999994 242.89 289.5199999999999 242.90999999999997 293.8999999999999 242.93999999999997 C 293.88999999999993 240.45999999999998 293.88999999999993 237.96999999999997 293.8999999999999 235.48999999999998 C 286.78 235.35 279.66 235.42 272.54 235.43 z" stroke-linecap="round" />
</g>
		<g transform="matrix(1 0 0 1 -110.89 11.41)" id="mLOIN5ynbD61K1CkXyJaK"  >
<path style="stroke: none; stroke-width: 1; stroke-dasharray: none; stroke-linecap: butt; stroke-dashoffset: 0; stroke-linejoin: miter; stroke-miterlimit: 4; fill: rgb(31,190,198); fill-rule: nonzero; opacity: 1;" vector-effect="non-scaling-stroke"  transform=" translate(-474.11, -304.91)" d="M 448.1 264.53 C 465.46000000000004 264.54999999999995 482.82000000000005 264.58 500.18 264.52 C 500.29 270.51 500.25 276.51 500.22 282.51 C 489.18 282.61 478.14000000000004 282.53999999999996 467.11 282.53999999999996 C 466.92 289.37999999999994 466.92 296.21999999999997 467.1 303.05999999999995 C 477.67 303.1499999999999 488.25 302.78 498.81 303.24999999999994 C 498.72 308.94999999999993 498.72 314.6499999999999 498.81 320.34999999999997 C 488.25 320.82 477.67 320.43999999999994 467.1 320.53999999999996 C 466.87 328.77 467.02000000000004 337.01 467.02000000000004 345.23999999999995 C 460.69000000000005 345.34999999999997 454.36 345.29999999999995 448.02000000000004 345.28 C 448 318.37 447.86 291.45 448.1 264.53 z" stroke-linecap="round" />
</g>
		<g transform="matrix(1 0 0 1 -32.64 11.44)" id="1CBqKvLvsf9izHqmY_yWa"  >
<path style="stroke: none; stroke-width: 1; stroke-dasharray: none; stroke-linecap: butt; stroke-dashoffset: 0; stroke-linejoin: miter; stroke-miterlimit: 4; fill: rgb(31,190,198); fill-rule: nonzero; opacity: 1;" vector-effect="non-scaling-stroke"  transform=" translate(-552.36, -304.94)" d="M 515.1 264.54 C 521.0500000000001 264.55 527.01 264.52000000000004 532.97 264.58000000000004 C 545.83 281.20000000000005 558.13 298.28000000000003 571.3000000000001 314.64000000000004 C 571.7400000000001 297.95000000000005 571.36 281.25000000000006 571.4900000000001 264.56000000000006 C 577.5100000000001 264.52000000000004 583.5400000000001 264.58000000000004 589.5600000000002 264.50000000000006 C 589.9100000000002 291.43000000000006 589.7200000000001 318.37000000000006 589.6600000000002 345.30000000000007 C 583.6700000000002 345.05000000000007 577.5900000000001 345.83000000000004 571.6800000000002 344.93000000000006 C 558.7700000000002 328.12000000000006 546.1800000000002 311.0400000000001 533.3400000000001 294.1700000000001 C 533.1000000000001 311.2100000000001 533.3200000000002 328.25000000000006 533.2300000000001 345.2900000000001 C 527.1600000000001 345.31000000000006 521.0900000000001 345.32000000000005 515.0300000000001 345.2800000000001 C 515 318.37 514.86 291.45 515.1 264.54 z" stroke-linecap="round" />
</g>
		<g transform="matrix(1 0 0 1 57.27 11.42)" id="T4cN3Q7OsQWs0Ay-W3ZtC"  >
<path style="stroke: none; stroke-width: 1; stroke-dasharray: none; stroke-linecap: butt; stroke-dashoffset: 0; stroke-linejoin: miter; stroke-miterlimit: 4; fill: rgb(31,190,198); fill-rule: nonzero; opacity: 1;" vector-effect="non-scaling-stroke"  transform=" translate(-642.27, -304.92)" d="M 606.1 264.53 C 621.49 264.57 636.9 264.53 652.3000000000001 264.54999999999995 C 658.94 264.59999999999997 665.7900000000001 267.28999999999996 670.0000000000001 272.55999999999995 C 676.6300000000001 280.65999999999997 676.1400000000001 293.8399999999999 668.3700000000001 301.04999999999995 C 672.6200000000001 304.31999999999994 676.5500000000001 308.43999999999994 677.8500000000001 313.79999999999995 C 679.5900000000001 321.68999999999994 678.3700000000001 330.71999999999997 672.8900000000001 336.93999999999994 C 667.7700000000001 342.7099999999999 659.8600000000001 345.36999999999995 652.2900000000001 345.30999999999995 C 636.8700000000001 345.28 621.45 345.3299999999999 606.0300000000001 345.28 C 606 318.37 605.86 291.45 606.1 264.53 z M 625.05 280.11 C 624.9499999999999 286.3 624.9599999999999 292.51 625.04 298.71000000000004 C 632.77 298.78000000000003 640.52 298.95000000000005 648.25 298.67 C 652.5 298.64000000000004 656.69 295.56 657.39 291.26 C 658.64 286.09 654.47 280.62 649.22 280.27 C 641.18 279.77 633.1 280.13 625.05 280.11 z M 625.1 309.54 C 624.9200000000001 316.38 624.9200000000001 323.22 625.1 330.06 C 633.13 329.92 641.1700000000001 330.27 649.2 329.89 C 654.59 329.8 659.36 324.72999999999996 658.7700000000001 319.28999999999996 C 658.95 314.03 654.0500000000001 309.93999999999994 649.0500000000001 309.74999999999994 C 641.08 309.28 633.08 309.7 625.1 309.54 z" stroke-linecap="round" />
</g>
		<g transform="matrix(1 0 0 1 163.85 11.42)" id="VP8-1dcKgFSoTZWhMpsU6"  >
<path style="stroke: none; stroke-width: 1; stroke-dasharray: none; stroke-linecap: butt; stroke-dashoffset: 0; stroke-linejoin: miter; stroke-miterlimit: 4; fill: rgb(31,190,198); fill-rule: nonzero; opacity: 1;" vector-effect="non-scaling-stroke"  transform=" translate(-748.85, -304.92)" d="M 734.51 269.51 C 740.4399999999999 266.05 747.36 264.44 754.2 264.53 C 762.8000000000001 264.55999999999995 771.3900000000001 264.53999999999996 779.99 264.54999999999995 C 780 270.52 779.99 276.47999999999996 780 282.44999999999993 C 771.29 282.85999999999996 762.54 282.06999999999994 753.86 283.0399999999999 C 747.16 283.7999999999999 740.71 288.1199999999999 738.52 294.6699999999999 C 736.3 301.3999999999999 736.21 309.0299999999999 738.74 315.6899999999999 C 741.15 322.1599999999999 747.72 326.26999999999987 754.44 326.8899999999999 C 762.94 327.6899999999999 771.49 327.08999999999986 780.0200000000001 327.3599999999999 C 779.9800000000001 333.3199999999999 779.9800000000001 339.2799999999999 780.0200000000001 345.2399999999999 C 771.4200000000001 345.3699999999999 762.8100000000001 345.26999999999987 754.2100000000002 345.3199999999999 C 745.1800000000002 345.39999999999986 735.8100000000002 342.70999999999987 729.0900000000001 336.4799999999999 C 722.0800000000002 330.0599999999999 718.6100000000001 320.5699999999999 717.8900000000001 311.2599999999999 C 717.4300000000001 303.2499999999999 717.5400000000001 294.9999999999999 720.3100000000001 287.3699999999999 C 722.77 280 727.76 273.43 734.51 269.51 z" stroke-linecap="round" />
</g>
		<g transform="matrix(1 0 0 1 240.49 11.42)" id="4UzYAwH0GEXShUtMkzUbI"  >
<path style="stroke: none; stroke-width: 1; stroke-dasharray: none; stroke-linecap: butt; stroke-dashoffset: 0; stroke-linejoin: miter; stroke-miterlimit: 4; fill: rgb(31,190,198); fill-rule: nonzero; opacity: 1;" vector-effect="non-scaling-stroke"  transform=" translate(-825.49, -304.92)" d="M 790.09 264.53 C 796.39 264.54999999999995 802.69 264.53999999999996 808.99 264.54999999999995 C 809.03 275.12999999999994 808.9300000000001 285.71 809.03 296.28 C 820.03 296.28999999999996 831.02 296.35999999999996 842.02 296.23999999999995 C 842.01 285.66999999999996 841.85 275.09999999999997 842.09 264.53 C 848.39 264.55999999999995 854.69 264.53999999999996 860.99 264.54999999999995 C 861.02 291.44999999999993 860.95 318.34999999999997 861.02 345.23999999999995 C 854.6899999999999 345.34999999999997 848.35 345.29999999999995 842.02 345.28 C 841.92 334.38 842.01 323.46999999999997 841.98 312.55999999999995 C 831.02 312.54999999999995 820.0600000000001 312.56999999999994 809.1 312.53999999999996 C 808.86 323.43999999999994 809.02 334.34 809.02 345.23999999999995 C 802.6899999999999 345.34999999999997 796.36 345.29999999999995 790.03 345.28 C 789.99 318.37 789.86 291.45 790.09 264.53 z" stroke-linecap="round" />
</g>
		<g transform="matrix(1 0 0 1 330.71 11.42)" id="tSuIREh5TP8WzaHxvpeqs"  >
<path style="stroke: none; stroke-width: 1; stroke-dasharray: none; stroke-linecap: butt; stroke-dashoffset: 0; stroke-linejoin: miter; stroke-miterlimit: 4; fill: rgb(31,190,198); fill-rule: nonzero; opacity: 1;" vector-effect="non-scaling-stroke"  transform=" translate(-915.71, -304.92)" d="M 902.83 264.69 C 911.2700000000001 264.36 919.71 264.66 928.1600000000001 264.51 C 938.7900000000001 291.36 949.2900000000001 318.28 959.6200000000001 345.24 C 952.2000000000002 345.35 944.7800000000001 345.31 937.3700000000001 345.27 C 935.6000000000001 340.24 933.6800000000001 335.26 932.0500000000001 330.18 C 920.7800000000001 329.91 909.5000000000001 330.09000000000003 898.23 330.08 C 896.4300000000001 335.09999999999997 894.57 340.09 892.91 345.15 C 885.87 345.42999999999995 878.8299999999999 345.29999999999995 871.79 345.25 C 881.83 318.28 892.73 291.63 902.83 264.69 z M 914.84 283 C 910.8000000000001 293.73 906.7800000000001 304.47 902.87 315.24 C 911.02 315.35 919.17 315.3 927.33 315.28000000000003 C 924.6500000000001 307.94000000000005 921.9000000000001 300.64000000000004 919.1800000000001 293.32000000000005 C 917.87 289.82 916.84 286.18 914.84 283 z" stroke-linecap="round" />
</g>
		<g transform="matrix(1 0 0 1 389.49 11.42)" id="QEPhfqZ2ASzRgKWOb-8Yh"  >
<path style="stroke: none; stroke-width: 1; stroke-dasharray: none; stroke-linecap: butt; stroke-dashoffset: 0; stroke-linejoin: miter; stroke-miterlimit: 4; fill: rgb(31,190,198); fill-rule: nonzero; opacity: 1;" vector-effect="non-scaling-stroke"  transform=" translate(-974.49, -304.92)" d="M 965.09 264.53 C 971.39 264.54999999999995 977.69 264.53999999999996 983.99 264.54999999999995 C 984.02 291.44999999999993 983.94 318.34999999999997 984.02 345.23999999999995 C 977.6899999999999 345.34999999999997 971.35 345.29999999999995 965.03 345.28 C 965 318.37 964.86 291.45 965.09 264.53 z" stroke-linecap="round" />
</g>
		<g transform="matrix(1 0 0 1 450.36 11.42)" id="PMVIHVaZbcmbMqBuiepKq"  >
<path style="stroke: none; stroke-width: 1; stroke-dasharray: none; stroke-linecap: butt; stroke-dashoffset: 0; stroke-linejoin: miter; stroke-miterlimit: 4; fill: rgb(31,190,198); fill-rule: nonzero; opacity: 1;" vector-effect="non-scaling-stroke"  transform=" translate(-1035.36, -304.92)" d="M 998.09 264.54 C 1004.0500000000001 264.55 1010.01 264.52000000000004 1015.97 264.58000000000004 C 1028.83 281.20000000000005 1041.1200000000001 298.28000000000003 1054.3 314.64000000000004 C 1054.74 297.95000000000005 1054.36 281.25000000000006 1054.49 264.55000000000007 C 1060.51 264.5200000000001 1066.53 264.58000000000004 1072.56 264.50000000000006 C 1072.9099999999999 291.43000000000006 1072.72 318.37000000000006 1072.6599999999999 345.30000000000007 C 1067.1899999999998 345.2200000000001 1061.7199999999998 345.4600000000001 1056.2599999999998 345.24000000000007 C 1055.1199999999997 345.2800000000001 1054.2699999999998 344.81000000000006 1053.7199999999998 343.83000000000004 C 1041.2899999999997 327.26000000000005 1028.8399999999997 310.70000000000005 1016.3399999999998 294.1700000000001 C 1016.0999999999998 311.2100000000001 1016.3199999999998 328.25000000000006 1016.2299999999998 345.2900000000001 C 1010.1599999999997 345.31000000000006 1004.0899999999998 345.32000000000005 998.0299999999997 345.2800000000001 C 997.99 318.37 997.86 291.45 998.09 264.54 z" stroke-linecap="round" />
</g>
		<g transform="matrix(1 0 0 1 -322.23 67.06)" id="ii_ugtZLUL7FG79SnqmZ9"  >
<path style="stroke: none; stroke-width: 1; stroke-dasharray: none; stroke-linecap: butt; stroke-dashoffset: 0; stroke-linejoin: miter; stroke-miterlimit: 4; fill: rgb(31,190,198); fill-rule: nonzero; opacity: 1;" vector-effect="non-scaling-stroke"  transform=" translate(-262.77, -360.56)" d="M 159.37 313.43 C 175.33 304.7 190.87 295.24 206.78 286.42 C 206.8 293.84000000000003 206.89000000000001 301.26 206.72 308.69 C 196.81 314.5 186.74 320.04 176.93 326.02 C 175.63 326.94 173.70000000000002 327.79999999999995 173.96 329.71 C 173.28 347.78999999999996 173.89000000000001 365.89 173.70000000000002 383.97999999999996 C 189.23000000000002 393.60999999999996 205.25000000000003 402.4 221.07000000000002 411.53 C 222.57000000000002 412.77 224.29000000000002 411.55999999999995 225.69000000000003 410.80999999999995 C 254.70000000000002 394.0899999999999 283.77000000000004 377.4599999999999 312.79 360.74999999999994 C 313.39000000000004 353.06999999999994 312.25 345.21999999999997 313.51000000000005 337.6499999999999 C 319.00000000000006 334.3599999999999 324.72 331.4599999999999 330.14000000000004 328.05999999999995 C 330.96000000000004 318.22999999999996 330.35 308.34999999999997 330.52000000000004 298.49999999999994 C 337.18000000000006 301.79999999999995 344.1 304.79999999999995 349.80000000000007 309.68999999999994 C 349.8500000000001 315.18999999999994 349.82000000000005 320.69999999999993 350.0400000000001 326.19999999999993 C 356.93000000000006 330.0899999999999 363.7300000000001 334.1499999999999 370.7900000000001 337.73999999999995 C 371.18000000000006 348.85999999999996 370.9100000000001 359.98999999999995 370.8300000000001 371.10999999999996 C 370.9300000000001 373.06999999999994 368.5700000000001 373.47999999999996 367.3100000000001 374.4 C 358.7400000000001 378.73999999999995 350.8200000000001 384.28 342.1800000000001 388.47999999999996 C 335.5800000000001 386.31999999999994 330.23000000000013 381.52 323.9400000000001 378.68999999999994 C 321.85000000000014 377.94999999999993 319.7500000000001 379.0899999999999 317.91000000000014 379.97999999999996 C 286.97000000000014 398.15 255.81000000000014 415.98999999999995 224.75000000000014 433.96999999999997 C 222.75000000000014 435.73999999999995 220.55000000000015 433.83 218.73000000000013 432.84 C 197.48000000000013 420.03999999999996 175.45000000000013 408.5 154.54000000000013 395.14 C 154.83000000000013 369.55 154.50000000000014 343.95 154.76000000000013 318.36 C 154.47 315.65 157.57 314.69 159.37 313.43 z M 328.65 340.49 C 328.77 351.45 328.78 362.41 328.64 373.36 C 335.18 373.75 341.74 373.56 348.3 373.57 C 353.40000000000003 373.68 358.67 369.71 358.63 364.32 C 359.21999999999997 360.95 357.27 358.02 354.89 355.87 C 355.71 353.75 356.83 351.62 356.77 349.29 C 357.04999999999995 344.67 352.79999999999995 340.47 348.22999999999996 340.51000000000005 C 341.7 340.32 335.17 340.46 328.65 340.49 z" stroke-linecap="round" />
</g>
		<g transform="matrix(1 0 0 1 -125.77 77.43)" id="j7rMLCiIUpdYW8ntXKRWv"  >
<path style="stroke: none; stroke-width: 1; stroke-dasharray: none; stroke-linecap: butt; stroke-dashoffset: 0; stroke-linejoin: miter; stroke-miterlimit: 4; fill: rgb(31,190,198); fill-rule: nonzero; opacity: 1;" vector-effect="non-scaling-stroke"  transform=" translate(-459.23, -370.93)" d="M 455.41 358.54 C 457.89000000000004 358.57 460.37 358.44 462.85 358.66 C 466.53000000000003 366.65000000000003 469.45000000000005 375.02000000000004 472.63 383.25 C 470.48 383.29 468.34 383.31 466.2 383.34 C 465.45 381.78 464.71 380.22999999999996 463.95 378.7 C 460.59 378.75 457.22999999999996 378.75 453.87 378.82 C 453.26 380.3 452.66 381.78 452.07 383.27 C 449.98 383.28999999999996 447.9 383.28 445.82 383.27 C 448.9 374.98 452.15 366.75 455.41 358.54 z M 458.85 364.19 C 457.59000000000003 367.44 456.44 370.73 455.28000000000003 374.02 C 457.83000000000004 374.02 460.37 374.03999999999996 462.93 374.08 C 461.69 370.73 460.51 367.35 458.85 364.19 z" stroke-linecap="round" />
</g>
		<g transform="matrix(1 0 0 1 -92.9 77.44)" id="RmlbLjEy3gIH-ENfAtAj0"  >
<path style="stroke: none; stroke-width: 1; stroke-dasharray: none; stroke-linecap: butt; stroke-dashoffset: 0; stroke-linejoin: miter; stroke-miterlimit: 4; fill: rgb(31,190,198); fill-rule: nonzero; opacity: 1;" vector-effect="non-scaling-stroke"  transform=" translate(-492.1, -370.94)" d="M 484.37 368.21 C 481.63 364.84999999999997 484.06 359 488.4 358.69 C 493.25 358.35 498.12 358.64 502.97999999999996 358.59 C 502.97999999999996 360.39 502.97999999999996 362.2 502.97999999999996 364.02 C 498.60999999999996 364.03999999999996 494.22999999999996 363.91999999999996 489.86999999999995 364.28 C 490.3299999999999 368.96999999999997 496.0799999999999 369.63 498.87999999999994 372.66999999999996 C 502.7799999999999 375.59999999999997 500.86999999999995 382.59999999999997 496.0199999999999 383.12999999999994 C 491.1099999999999 383.56999999999994 486.1599999999999 383.19999999999993 481.2299999999999 383.28999999999996 C 481.2399999999999 381.48999999999995 481.2399999999999 379.7 481.2299999999999 377.90999999999997 C 485.3299999999999 377.71 489.4799999999999 378.16999999999996 493.5599999999999 377.58 C 494.76999999999987 376.82 494.2799999999999 374.96999999999997 493.0299999999999 374.53 C 490.22 372.32 486.7 370.98 484.37 368.21 z" stroke-linecap="round" />
</g>
		<g transform="matrix(1 0 0 1 -64.76 77.41)" id="De9lFX4CgpEI5NnHFDmwc"  >
<path style="stroke: none; stroke-width: 1; stroke-dasharray: none; stroke-linecap: butt; stroke-dashoffset: 0; stroke-linejoin: miter; stroke-miterlimit: 4; fill: rgb(31,190,198); fill-rule: nonzero; opacity: 1;" vector-effect="non-scaling-stroke"  transform=" translate(-520.24, -370.91)" d="M 505.09 358.52 C 507.92999999999995 358.53 510.78 358.59 513.63 358.7 C 515.78 364.28 517.87 369.89 520.48 375.28 C 522.69 369.66999999999996 524.85 364.03999999999996 527.34 358.54999999999995 C 530.02 358.56999999999994 532.7 358.55999999999995 535.39 358.53999999999996 C 535.61 366.78999999999996 535.55 375.04999999999995 535.4399999999999 383.29999999999995 C 533.6199999999999 383.28 531.81 383.28999999999996 530.01 383.30999999999995 C 529.92 377.59999999999997 529.99 371.8999999999999 529.97 366.19999999999993 C 527.4300000000001 371.7899999999999 525.21 377.50999999999993 522.96 383.2199999999999 C 521.14 383.2399999999999 519.33 383.2399999999999 517.52 383.2299999999999 C 515.27 377.5099999999999 513.04 371.7799999999999 510.51 366.1899999999999 C 510.49 371.8899999999999 510.56 377.5999999999999 510.46999999999997 383.2999999999999 C 508.64 383.2799999999999 506.82 383.2899999999999 505.01 383.3099999999999 C 504.97 375.04 504.85 366.78 505.09 358.52 z" stroke-linecap="round" />
</g>
		<g transform="matrix(1 0 0 1 -35.74 77.43)" id="NKCltTB5z-SDsLwhRKG8S"  >
<path style="stroke: none; stroke-width: 1; stroke-dasharray: none; stroke-linecap: butt; stroke-dashoffset: 0; stroke-linejoin: miter; stroke-miterlimit: 4; fill: rgb(31,190,198); fill-rule: nonzero; opacity: 1;" vector-effect="non-scaling-stroke"  transform=" translate(-549.26, -370.93)" d="M 545.41 358.54 C 547.89 358.57 550.38 358.43 552.86 358.66 C 556.51 366.66 559.47 375.01000000000005 562.61 383.24 C 560.47 383.29 558.33 383.31 556.2 383.34000000000003 C 555.44 381.78000000000003 554.71 380.23 553.95 378.70000000000005 C 550.59 378.75000000000006 547.23 378.75000000000006 543.87 378.82000000000005 C 543.26 380.30000000000007 542.66 381.78000000000003 542.07 383.28000000000003 C 540.0100000000001 383.29 537.96 383.28000000000003 535.9100000000001 383.25000000000006 C 538.82 374.92 542.19 366.76 545.41 358.54 z M 548.85 364.19 C 547.59 367.44 546.44 370.73 545.28 374.02 C 547.8299999999999 374.02 550.37 374.03999999999996 552.93 374.08 C 551.69 370.73 550.51 367.35 548.85 364.19 z" stroke-linecap="round" />
</g>
		<g transform="matrix(1 0 0 1 -9.69 77.3)" id="vwOOqfxQFDiJs5pSEYIQp"  >
<path style="stroke: none; stroke-width: 1; stroke-dasharray: none; stroke-linecap: butt; stroke-dashoffset: 0; stroke-linejoin: miter; stroke-miterlimit: 4; fill: rgb(31,190,198); fill-rule: nonzero; opacity: 1;" vector-effect="non-scaling-stroke"  transform=" translate(-575.31, -370.8)" d="M 564.01 358.32 C 569.25 358.46 574.55 357.84 579.75 358.69 C 584.61 359.58 587.19 365.66 584.96 369.92 C 583.73 372.34000000000003 580.97 373.25 578.8100000000001 374.61 C 580.2 377.84000000000003 583.5300000000001 378.1 586.6500000000001 378.07 C 586.6300000000001 379.83 586.6400000000001 381.59 586.6700000000001 383.36 C 584.0500000000001 383.24 581.33 383.57 578.8100000000001 382.72 C 574.69 381.11 574.4300000000001 375.07000000000005 569.8000000000001 374.29 C 569.71 377.29 569.6500000000001 380.3 569.6300000000001 383.31 C 567.7500000000001 383.29 565.8700000000001 383.29 564.0000000000001 383.3 C 563.95 374.97 563.92 366.65 564.01 358.32 z M 569.65 363.59 C 569.66 365.84999999999997 569.66 368.10999999999996 569.65 370.38 C 572.42 370.46 575.29 370.98 578.01 370.19 C 580.89 369.24 580.5 364.77 577.81 363.84 C 575.12 363.31 572.36 363.61 569.65 363.59 z" stroke-linecap="round" />
</g>
		<g transform="matrix(1 0 0 1 13.62 77.43)" id="nKCPYfJKyMQYS13P-Hjmu"  >
<path style="stroke: none; stroke-width: 1; stroke-dasharray: none; stroke-linecap: butt; stroke-dashoffset: 0; stroke-linejoin: miter; stroke-miterlimit: 4; fill: rgb(31,190,198); fill-rule: nonzero; opacity: 1;" vector-effect="non-scaling-stroke"  transform=" translate(-598.62, -370.93)" d="M 586.29 358.54 C 594.52 358.6 602.75 358.54 610.98 358.58000000000004 C 610.98 360.38000000000005 610.98 362.19000000000005 610.99 364.00000000000006 C 607.82 364.01000000000005 604.65 364.05000000000007 601.49 364.1600000000001 C 601.51 370.5400000000001 601.55 376.9200000000001 601.47 383.30000000000007 C 599.59 383.2900000000001 597.72 383.2900000000001 595.85 383.31000000000006 C 595.72 376.95000000000005 595.76 370.58000000000004 595.84 364.2200000000001 C 592.64 364.0300000000001 589.44 364.0100000000001 586.25 364.0200000000001 C 586.25 362.19 586.26 360.37 586.29 358.54 z" stroke-linecap="round" />
</g>
		<g transform="matrix(1 0 0 1 37.66 77.42)" id="6HWhtlVQQQERhOp6cZN1e"  >
<path style="stroke: none; stroke-width: 1; stroke-dasharray: none; stroke-linecap: butt; stroke-dashoffset: 0; stroke-linejoin: miter; stroke-miterlimit: 4; fill: rgb(31,190,198); fill-rule: nonzero; opacity: 1;" vector-effect="non-scaling-stroke"  transform=" translate(-622.66, -370.92)" d="M 613.3 358.53 C 619.3499999999999 358.59 625.39 358.55999999999995 631.4399999999999 358.54999999999995 C 631.4399999999999 360.37999999999994 631.4399999999999 362.21 631.4499999999999 364.04999999999995 C 627.29 364.03 623.14 364.00999999999993 618.9899999999999 364.0799999999999 C 619.0299999999999 365.55999999999995 619.0299999999999 367.0399999999999 618.9899999999999 368.5199999999999 C 623.0499999999998 368.5899999999999 627.1199999999999 368.56999999999994 631.18 368.5399999999999 C 631.18 370.1099999999999 631.2099999999999 371.6899999999999 631.28 373.2699999999999 C 627.18 373.31999999999994 623.0899999999999 373.2999999999999 618.99 373.2999999999999 C 619.01 374.7699999999999 619.01 376.2499999999999 618.98 377.7299999999999 C 623.3100000000001 377.8599999999999 627.64 377.8599999999999 631.97 377.7499999999999 C 631.99 379.5599999999999 632.03 381.3699999999999 632.09 383.1899999999999 C 625.8100000000001 383.39999999999986 619.5300000000001 383.27999999999986 613.25 383.2899999999999 C 613.25 375.04 613.17 366.78 613.3 358.53 z" stroke-linecap="round" />
</g>
		<g transform="matrix(1 0 0 1 59.31 77.3)" id="QyTLhAFGL8qYUGkBKaKDH"  >
<path style="stroke: none; stroke-width: 1; stroke-dasharray: none; stroke-linecap: butt; stroke-dashoffset: 0; stroke-linejoin: miter; stroke-miterlimit: 4; fill: rgb(31,190,198); fill-rule: nonzero; opacity: 1;" vector-effect="non-scaling-stroke"  transform=" translate(-644.31, -370.8)" d="M 633.02 358.32 C 638.25 358.46 643.56 357.84 648.75 358.69 C 653.61 359.58 656.19 365.66 653.96 369.92 C 652.72 372.34000000000003 649.97 373.25 647.8000000000001 374.61 C 649.2 377.84000000000003 652.5300000000001 378.11 655.6500000000001 378.07 C 655.6300000000001 379.83 655.6400000000001 381.59 655.6700000000001 383.36 C 653.0500000000001 383.24 650.33 383.57 647.8100000000001 382.72 C 643.69 381.1 643.4200000000001 375.07000000000005 638.8100000000001 374.29 C 638.71 377.29 638.6500000000001 380.3 638.6300000000001 383.31 C 636.7500000000001 383.29 634.8700000000001 383.29 633.0100000000001 383.3 C 632.94 374.97 632.93 366.65 633.02 358.32 z M 638.65 363.59 C 638.66 365.84999999999997 638.66 368.10999999999996 638.65 370.38 C 641.42 370.45 644.29 370.98 647.01 370.19 C 649.89 369.23 649.49 364.78 646.81 363.83 C 644.12 363.31 641.36 363.61 638.65 363.59 z" stroke-linecap="round" />
</g>
		<g transform="matrix(1 0 0 1 97.55 77.4)" id="6GSfdDCsKO6Vay8wSYb_b"  >
<path style="stroke: none; stroke-width: 1; stroke-dasharray: none; stroke-linecap: butt; stroke-dashoffset: 0; stroke-linejoin: miter; stroke-miterlimit: 4; fill: rgb(31,190,198); fill-rule: nonzero; opacity: 1;" vector-effect="non-scaling-stroke"  transform=" translate(-682.55, -370.9)" d="M 663.92 358.56 C 666.01 358.54 668.11 358.54 670.2199999999999 358.54 C 671.9399999999999 364.09000000000003 673.0799999999999 369.79 674.68 375.38 C 676.6899999999999 369.92 678.25 364.32 679.88 358.74 C 681.64 358.64 683.4 358.55 685.17 358.46000000000004 C 687.1899999999999 364.04 688.43 369.87000000000006 690.5899999999999 375.41 C 692.0099999999999 369.84000000000003 693.5099999999999 364.3 694.8799999999999 358.72 C 696.9699999999999 358.64000000000004 699.0699999999999 358.55 701.1799999999998 358.52000000000004 C 698.9699999999998 366.8 696.6299999999999 375.04 694.2599999999999 383.28000000000003 C 691.8599999999999 383.29 689.4699999999999 383.31 687.0899999999999 383.34000000000003 C 685.41 378.3 684.0899999999999 373.15000000000003 682.4499999999999 368.1 C 679.7099999999999 372.75 679.03 378.27000000000004 677.1299999999999 383.29 C 674.8499999999999 383.29 672.5899999999999 383.29 670.3199999999999 383.28000000000003 C 668.29 375.01 665.68 366.89 663.92 358.56 z" stroke-linecap="round" />
</g>
		<g transform="matrix(1 0 0 1 128.23 77.43)" id="z1_vWj3q25-q6pJNNxiby"  >
<path style="stroke: none; stroke-width: 1; stroke-dasharray: none; stroke-linecap: butt; stroke-dashoffset: 0; stroke-linejoin: miter; stroke-miterlimit: 4; fill: rgb(31,190,198); fill-rule: nonzero; opacity: 1;" vector-effect="non-scaling-stroke"  transform=" translate(-713.23, -370.93)" d="M 709.41 358.54 C 711.89 358.57 714.38 358.43 716.86 358.66 C 720.51 366.67 723.46 375.02000000000004 726.63 383.25 C 724.48 383.29 722.34 383.31 720.2 383.34 C 719.44 381.78999999999996 718.71 380.22999999999996 717.95 378.7 C 714.59 378.75 711.23 378.75 707.87 378.82 C 707.26 380.3 706.66 381.78 706.07 383.27 C 703.98 383.28999999999996 701.8900000000001 383.28 699.82 383.27 C 702.9 374.98 706.15 366.75 709.41 358.54 z M 712.85 364.19 C 711.59 367.44 710.44 370.73 709.28 374.02 C 711.8299999999999 374.03 714.37 374.03999999999996 716.93 374.08 C 715.69 370.73 714.51 367.35 712.85 364.19 z" stroke-linecap="round" />
</g>
		<g transform="matrix(1 0 0 1 150.16 77.42)" id="FPoX-JDOgdl1Q2AtmMxW6"  >
<path style="stroke: none; stroke-width: 1; stroke-dasharray: none; stroke-linecap: butt; stroke-dashoffset: 0; stroke-linejoin: miter; stroke-miterlimit: 4; fill: rgb(31,190,198); fill-rule: nonzero; opacity: 1;" vector-effect="non-scaling-stroke"  transform=" translate(-735.16, -370.92)" d="M 722.98 358.53 C 725.16 358.63 727.46 358.25 729.58 358.95 C 731.6700000000001 362.36 733.08 366.15999999999997 735.5200000000001 369.37 C 737.58 365.85 738.7500000000001 361.66 741.57 358.66 C 743.48 358.45000000000005 745.4200000000001 358.53000000000003 747.35 358.53000000000003 C 744.9200000000001 363.58000000000004 741.85 368.3 739.19 373.23 C 737.3000000000001 376.23 738.11 379.90000000000003 737.98 383.24 C 736.07 383.27 734.1800000000001 383.3 732.29 383.33 C 732.0699999999999 380 732.9 376.34999999999997 731.11 373.33 C 728.43 368.38 725.33 363.65 722.98 358.53 z" stroke-linecap="round" />
</g>
		<g transform="matrix(1 0 0 1 196.03 77.25)" id="Kb1Vk7FEW5XLsdLU92oAI"  >
<path style="stroke: none; stroke-width: 1; stroke-dasharray: none; stroke-linecap: butt; stroke-dashoffset: 0; stroke-linejoin: miter; stroke-miterlimit: 4; fill: rgb(31,190,198); fill-rule: nonzero; opacity: 1;" vector-effect="non-scaling-stroke"  transform=" translate(-781.03, -370.75)" d="M 756.27 358.55 C 764.47 358.57 772.68 358.58 780.89 358.55 C 780.9499999999999 360.29 781.03 362.03000000000003 781.16 363.78000000000003 C 784.5899999999999 360.3 789.05 357.05 794.25 357.88000000000005 C 802.79 358.56000000000006 808.54 368.8500000000001 804.44 376.44000000000005 C 801.11 384.06000000000006 790.07 386.28000000000003 784.1 380.47 C 779.22 376.45000000000005 778.9 369.44000000000005 781.27 363.96000000000004 C 778.01 364.01000000000005 774.75 364.04 771.49 364.16 C 771.51 370.54 771.55 376.92 771.47 383.3 C 769.59 383.29 767.71 383.29 765.85 383.31 C 765.72 376.95 765.76 370.58 765.84 364.23 C 762.65 364.03000000000003 759.45 364.01 756.27 364.02000000000004 C 756.26 362.19 756.26 360.37 756.27 358.55 z M 790.67 363.79 C 785.0899999999999 365.15000000000003 783.27 373.15000000000003 787.93 376.63 C 792.04 380.35 799.28 377.51 799.93 372.07 C 800.97 367 795.6 362.19 790.67 363.79 z" stroke-linecap="round" />
</g>
		<g transform="matrix(1 0 0 1 237.22 77.43)" id="o_bSu3QM7MR7Jh0j2aKT3"  >
<path style="stroke: none; stroke-width: 1; stroke-dasharray: none; stroke-linecap: butt; stroke-dashoffset: 0; stroke-linejoin: miter; stroke-miterlimit: 4; fill: rgb(31,190,198); fill-rule: nonzero; opacity: 1;" vector-effect="non-scaling-stroke"  transform=" translate(-822.22, -370.93)" d="M 815.77 361.84 C 819.8299999999999 357.34999999999997 826.41 358.73999999999995 831.79 358.59999999999997 C 831.76 360.39 831.77 362.18999999999994 831.79 363.98999999999995 C 828.67 364.0799999999999 825.48 363.73999999999995 822.42 364.43999999999994 C 816.89 366.3399999999999 817.06 376.1499999999999 822.92 377.50999999999993 C 825.8 378.06999999999994 828.76 377.80999999999995 831.68 377.92999999999995 C 831.65 379.7099999999999 831.64 381.50999999999993 831.65 383.29999999999995 C 826.27 383.09999999999997 819.6 384.49999999999994 815.61 379.9 C 811.64 374.89 811.64 366.76 815.77 361.84 z" stroke-linecap="round" />
</g>
		<g transform="matrix(1 0 0 1 260.23 77.29)" id="L5z0geBNb5QlMEk9uwzp3"  >
<path style="stroke: none; stroke-width: 1; stroke-dasharray: none; stroke-linecap: butt; stroke-dashoffset: 0; stroke-linejoin: miter; stroke-miterlimit: 4; fill: rgb(31,190,198); fill-rule: nonzero; opacity: 1;" vector-effect="non-scaling-stroke"  transform=" translate(-845.23, -370.79)" d="M 834.01 358.32 C 839.25 358.46 844.56 357.84 849.76 358.69 C 854.61 359.59 857.1899999999999 365.66 854.96 369.92 C 853.72 372.34000000000003 850.96 373.25 848.8000000000001 374.6 C 850.1700000000001 377.75 853.3900000000001 378.11 856.45 378.1 C 856.44 379.85 856.46 381.6 856.5 383.35 C 853.93 383.24 851.27 383.56 848.81 382.72 C 844.6899999999999 381.1 844.42 375.07000000000005 839.8 374.28000000000003 C 839.7099999999999 377.29 839.64 380.3 839.63 383.31 C 837.74 383.29 835.87 383.29 834.01 383.3 C 833.94 374.97 833.93 366.65 834.01 358.32 z M 839.65 363.59 C 839.66 365.84999999999997 839.66 368.10999999999996 839.65 370.38 C 842.41 370.46 845.29 370.98 848.01 370.19 C 850.89 369.24 850.5 364.78 847.81 363.83 C 845.12 363.31 842.36 363.61 839.65 363.59 z" stroke-linecap="round" />
</g>
		<g transform="matrix(1 0 0 1 281.52 77.42)" id="HZOgV2KUT1qWx9_PNe2wf"  >
<path style="stroke: none; stroke-width: 1; stroke-dasharray: none; stroke-linecap: butt; stroke-dashoffset: 0; stroke-linejoin: miter; stroke-miterlimit: 4; fill: rgb(31,190,198); fill-rule: nonzero; opacity: 1;" vector-effect="non-scaling-stroke"  transform=" translate(-866.52, -370.92)" d="M 857.3 358.53 C 863.3399999999999 358.59 869.39 358.55999999999995 875.43 358.54999999999995 C 875.43 360.37999999999994 875.43 362.21 875.4399999999999 364.03999999999996 C 871.28 364.03 867.14 364.01 862.9899999999999 364.08 C 863.0199999999999 365.56 863.0199999999999 367.03999999999996 862.9899999999999 368.52 C 867.0499999999998 368.59 871.1099999999999 368.57 875.18 368.53999999999996 C 875.17 370.10999999999996 875.2099999999999 371.68999999999994 875.28 373.27 C 871.18 373.32 867.0799999999999 373.29999999999995 862.99 373.29999999999995 C 863.01 374.77 863 376.24999999999994 862.98 377.72999999999996 C 867.3000000000001 377.85999999999996 871.62 377.85999999999996 875.94 377.73999999999995 C 875.96 379.55999999999995 875.99 381.38999999999993 876.0400000000001 383.21999999999997 C 869.69 383.36999999999995 863.34 383.29999999999995 857.0000000000001 383.27 C 857.24 375.03 857.23 366.78 857.3 358.53 z" stroke-linecap="round" />
</g>
		<g transform="matrix(1 0 0 1 306.23 77.43)" id="jQQ-9Q1n64E1Ot4AipCI5"  >
<path style="stroke: none; stroke-width: 1; stroke-dasharray: none; stroke-linecap: butt; stroke-dashoffset: 0; stroke-linejoin: miter; stroke-miterlimit: 4; fill: rgb(31,190,198); fill-rule: nonzero; opacity: 1;" vector-effect="non-scaling-stroke"  transform=" translate(-891.23, -370.93)" d="M 887.41 358.54 C 889.89 358.57 892.38 358.43 894.86 358.66 C 898.51 366.67 901.46 375.02000000000004 904.63 383.25 C 902.48 383.29 900.34 383.31 898.2 383.34 C 897.44 381.78 896.7 380.22999999999996 895.95 378.7 C 892.58 378.75 889.22 378.75 885.87 378.82 C 885.26 380.3 884.66 381.78 884.07 383.27 C 881.98 383.28999999999996 879.8900000000001 383.28 877.82 383.26 C 880.9 374.98 884.15 366.75 887.41 358.54 z M 890.85 364.19 C 889.59 367.44 888.44 370.73 887.28 374.02 C 889.8199999999999 374.02 892.37 374.03999999999996 894.93 374.08 C 893.68 370.73 892.51 367.35 890.85 364.19 z" stroke-linecap="round" />
</g>
		<g transform="matrix(1 0 0 1 329.62 77.43)" id="Msefl0JDLk4M-CSl56Hkj"  >
<path style="stroke: none; stroke-width: 1; stroke-dasharray: none; stroke-linecap: butt; stroke-dashoffset: 0; stroke-linejoin: miter; stroke-miterlimit: 4; fill: rgb(31,190,198); fill-rule: nonzero; opacity: 1;" vector-effect="non-scaling-stroke"  transform=" translate(-914.62, -370.93)" d="M 902.28 358.55 C 910.51 358.59000000000003 918.75 358.54 926.98 358.58 C 926.97 360.38 926.97 362.19 926.99 364 C 923.8100000000001 364.01 920.65 364.05 917.49 364.16 C 917.51 370.54 917.55 376.92 917.47 383.3 C 915.59 383.29 913.71 383.29 911.85 383.31 C 911.72 376.95 911.76 370.59 911.84 364.23 C 908.65 364.03000000000003 905.45 364.01 902.27 364.02000000000004 C 902.25 362.19 902.26 360.37 902.28 358.55 z" stroke-linecap="round" />
</g>
		<g transform="matrix(1 0 0 1 353.63 77.42)" id="P2AbCi8we91zSpdf-Ar3p"  >
<path style="stroke: none; stroke-width: 1; stroke-dasharray: none; stroke-linecap: butt; stroke-dashoffset: 0; stroke-linejoin: miter; stroke-miterlimit: 4; fill: rgb(31,190,198); fill-rule: nonzero; opacity: 1;" vector-effect="non-scaling-stroke"  transform=" translate(-938.63, -370.92)" d="M 929.31 358.53 C 935.3499999999999 358.59 941.39 358.55999999999995 947.4399999999999 358.54999999999995 C 947.42 360.37999999999994 947.42 362.21 947.4399999999999 364.03999999999996 C 943.28 364.03 939.13 363.99999999999994 934.9899999999999 364.08 C 935.0299999999999 365.56 935.0299999999999 367.03999999999996 934.9899999999999 368.52 C 939.0499999999998 368.59 943.1099999999999 368.57 947.18 368.53999999999996 C 947.17 370.10999999999996 947.1999999999999 371.68999999999994 947.28 373.27 C 943.18 373.32 939.0799999999999 373.29999999999995 934.99 373.29999999999995 C 935.01 374.77 935 376.24999999999994 934.98 377.72999999999996 C 939.3000000000001 377.85999999999996 943.62 377.85999999999996 947.95 377.73999999999995 C 947.96 379.55999999999995 947.99 381.38999999999993 948.0400000000001 383.21999999999997 C 941.7700000000001 383.36999999999995 935.5100000000001 383.28999999999996 929.2500000000001 383.28999999999996 C 929.25 375.04 929.17 366.78 929.31 358.53 z" stroke-linecap="round" />
</g>
		<g transform="matrix(1 0 0 1 385.24 77.41)" id="7l13jFTaFGC0nYLBvezDH"  >
<path style="stroke: none; stroke-width: 1; stroke-dasharray: none; stroke-linecap: butt; stroke-dashoffset: 0; stroke-linejoin: miter; stroke-miterlimit: 4; fill: rgb(31,190,198); fill-rule: nonzero; opacity: 1;" vector-effect="non-scaling-stroke"  transform=" translate(-970.24, -370.91)" d="M 956.98 358.53 C 959.1800000000001 358.54999999999995 961.4 358.63 963.61 358.71999999999997 C 965.76 364.78999999999996 967.73 370.95 970.36 376.84 C 973.2 370.94 974.91 364.59 977.4 358.53999999999996 C 979.42 358.54999999999995 981.4499999999999 358.55999999999995 983.49 358.59 C 980.72 366.95 977.15 375.01 974.09 383.26 C 971.5 383.28999999999996 968.9300000000001 383.28999999999996 966.35 383.28 C 963.27 375.01 959.69 366.93 956.98 358.53 z" stroke-linecap="round" />
</g>
		<g transform="matrix(1 0 0 1 411.23 77.43)" id="XqYvVBCODYIagbMHhvz29"  >
<path style="stroke: none; stroke-width: 1; stroke-dasharray: none; stroke-linecap: butt; stroke-dashoffset: 0; stroke-linejoin: miter; stroke-miterlimit: 4; fill: rgb(31,190,198); fill-rule: nonzero; opacity: 1;" vector-effect="non-scaling-stroke"  transform=" translate(-996.23, -370.93)" d="M 992.41 358.54 C 994.88 358.57 997.37 358.43 999.85 358.66 C 1003.52 366.66 1006.46 375.02000000000004 1009.63 383.25 C 1007.47 383.29 1005.34 383.31 1003.2 383.34 C 1002.44 381.78 1001.7 380.22999999999996 1000.94 378.69 C 997.58 378.75 994.22 378.75 990.87 378.82 C 990.26 380.3 989.65 381.78 989.07 383.27 C 986.98 383.28999999999996 984.8900000000001 383.28 982.82 383.27 C 985.9 374.98 989.15 366.76 992.41 358.54 z M 995.85 364.19 C 994.58 367.44 993.44 370.73 992.28 374.02 C 994.8199999999999 374.02 997.37 374.03999999999996 999.93 374.08 C 998.69 370.73 997.51 367.35 995.85 364.19 z" stroke-linecap="round" />
</g>
		<g transform="matrix(1 0 0 1 435.24 77.41)" id="t9qF5gFweuIQjFwgTKG0O"  >
<path style="stroke: none; stroke-width: 1; stroke-dasharray: none; stroke-linecap: butt; stroke-dashoffset: 0; stroke-linejoin: miter; stroke-miterlimit: 4; fill: rgb(31,190,198); fill-rule: nonzero; opacity: 1;" vector-effect="non-scaling-stroke"  transform=" translate(-1020.24, -370.91)" d="M 1011.32 358.51 C 1013.19 358.53 1015.07 358.55 1016.96 358.57 C 1017.0500000000001 365.01 1016.77 371.46 1017.1700000000001 377.9 C 1021.19 377.83 1025.22 377.79999999999995 1029.25 377.90999999999997 C 1029.22 379.7 1029.22 381.48999999999995 1029.25 383.28999999999996 C 1023.24 383.30999999999995 1017.24 383.30999999999995 1011.25 383.28999999999996 C 1011.26 375.03 1011.15 366.77 1011.32 358.51 z" stroke-linecap="round" />
</g>
		<g transform="matrix(1 0 0 1 455.6 77.66)" id="1dsaFFdP77nTu4AAdQI9U"  >
<path style="stroke: none; stroke-width: 1; stroke-dasharray: none; stroke-linecap: butt; stroke-dashoffset: 0; stroke-linejoin: miter; stroke-miterlimit: 4; fill: rgb(31,190,198); fill-rule: nonzero; opacity: 1;" vector-effect="non-scaling-stroke"  transform=" translate(-1040.6, -371.16)" d="M 1029.11 358.53 C 1030.99 358.53999999999996 1032.8899999999999 358.55999999999995 1034.8 358.59 C 1034.83 363.79999999999995 1034.28 369.07 1035.08 374.25 C 1036 379.7 1045.4099999999999 379.7 1046.1899999999998 374.19 C 1046.8899999999999 369.02 1046.34 363.77 1046.5099999999998 358.58 C 1048.3799999999997 358.55 1050.2599999999998 358.53 1052.1599999999999 358.51 C 1052.2099999999998 363.78 1052.4299999999998 369.05 1052.1299999999999 374.32 C 1051.7199999999998 380.09999999999997 1045.7399999999998 384.09999999999997 1040.2299999999998 383.79 C 1034.5699999999997 383.90000000000003 1028.9299999999998 379.20000000000005 1029.0099999999998 373.35 C 1028.83 368.41 1028.94 363.46 1029.11 358.53 z" stroke-linecap="round" />
</g>
		<g transform="matrix(1 0 0 1 479.63 77.42)" id="fiHO4trQ6SUSfdaLw0kLZ"  >
<path style="stroke: none; stroke-width: 1; stroke-dasharray: none; stroke-linecap: butt; stroke-dashoffset: 0; stroke-linejoin: miter; stroke-miterlimit: 4; fill: rgb(31,190,198); fill-rule: nonzero; opacity: 1;" vector-effect="non-scaling-stroke"  transform=" translate(-1064.63, -370.92)" d="M 1055.3 358.53 C 1061.34 358.59 1067.3899999999999 358.55999999999995 1073.43 358.54999999999995 C 1073.42 360.37999999999994 1073.42 362.21 1073.44 364.03999999999996 C 1069.28 364.03 1065.13 364.01 1060.99 364.08 C 1061.02 365.56 1061.02 367.03999999999996 1060.99 368.52 C 1065.05 368.59 1069.11 368.57 1073.18 368.53999999999996 C 1073.17 370.10999999999996 1073.2 371.68999999999994 1073.28 373.27 C 1069.18 373.32 1065.08 373.29999999999995 1060.99 373.29999999999995 C 1061 374.77 1061 376.24999999999994 1060.98 377.72999999999996 C 1065.3 377.85999999999996 1069.6200000000001 377.85999999999996 1073.94 377.73999999999995 C 1073.96 379.55999999999995 1073.99 381.38999999999993 1074.04 383.21999999999997 C 1067.77 383.36999999999995 1061.51 383.28999999999996 1055.25 383.28999999999996 C 1055.25 375.04 1055.17 366.78 1055.3 358.53 z" stroke-linecap="round" />
</g>
		<g transform="matrix(1 0 0 1 -242.19 57.02)" id="0UGiH2PDT5QGlItgeE7E-"  >
<path style="stroke: none; stroke-width: 1; stroke-dasharray: none; stroke-linecap: butt; stroke-dashoffset: 0; stroke-linejoin: miter; stroke-miterlimit: 4; fill: rgb(31,190,198); fill-rule: nonzero; opacity: 1;" vector-effect="non-scaling-stroke"  transform=" translate(-342.81, -350.52)" d="M 347.46 354.15 L 335.91999999999996 354.15 L 335.91999999999996 346.9 L 347.34999999999997 346.9 C 348.65 346.9 349.71 347.96 349.71 349.26 L 349.71 351.9 C 349.7 353.14 348.7 354.15 347.46 354.15 z" stroke-linecap="round" />
</g>
		<g transform="matrix(1 0 0 1 -241.94 68.82)" id="DaUeUF0zBDcPbsccKxYTc"  >
<path style="stroke: none; stroke-width: 1; stroke-dasharray: none; stroke-linecap: butt; stroke-dashoffset: 0; stroke-linejoin: miter; stroke-miterlimit: 4; fill: rgb(31,190,198); fill-rule: nonzero; opacity: 1;" vector-effect="non-scaling-stroke"  transform=" translate(-343.06, -362.32)" d="M 347.71 365.95 L 336.16999999999996 365.95 L 336.16999999999996 358.7 L 347.59999999999997 358.7 C 348.9 358.7 349.96 359.76 349.96 361.06 L 349.96 363.7 C 349.95 364.94 348.95 365.95 347.71 365.95 z" stroke-linecap="round" />
</g>
</g>
</g>
</svg>